<?xml version="1.0" encoding="UTF-8"?>
<svg width="140px" height="138px" viewBox="0 0 140 138" version="1.1" xmlns="http://www.w3.org/2000/svg" xmlns:xlink="http://www.w3.org/1999/xlink">
    <title>Group 25</title>
    <g id="Events" stroke="none" stroke-width="1" fill="none" fill-rule="evenodd">
        <g id="EV-Dash---Desktop" transform="translate(-1360, -1852)">
            <g id="Group-25" transform="translate(1360, 1852)">
                <polygon id="Fill-1" fill="#BA8F5D" points="31.852 68.144 35.106 68.144 35.106 1.186 31.852 1.186"></polygon>
                <polygon id="Fill-2" fill="#BA8F5D" points="0 35.479 66.957 35.479 66.957 32.225 0 32.225"></polygon>
                <polygon id="Fill-3" fill="#BA8F5D" points="18.0777 11.9396 20.3787 9.6386 58.1437 47.4036 55.8427 49.7046"></polygon>
                <polygon id="Fill-4" fill="#BA8F5D" points="8.5875 20.4808 10.8885 18.1798 48.6535 55.9448 46.3525 58.2458"></polygon>
                <polygon id="Fill-5" fill="#BA8F5D" points="11.9273 49.1399 9.6263 46.8389 47.3913 9.0739 49.6923 11.3749"></polygon>
                <polygon id="Fill-6" fill="#BA8F5D" points="20.4685 58.6301 18.1675 56.3291 55.9325 18.5641 58.2335 20.8651"></polygon>
                <polygon id="Fill-7" fill="#B92826" points="102.944 66.958 106.198 66.958 106.198 0 102.944 0"></polygon>
                <polygon id="Fill-8" fill="#B92826" points="71.092 34.293 138.05 34.293 138.05 31.039 71.092 31.039"></polygon>
                <polygon id="Fill-9" fill="#B92826" points="89.17 10.753 91.471 8.452 129.236 46.217 126.935 48.518"></polygon>
                <polygon id="Fill-10" fill="#B92826" points="79.6797 19.2942 81.9807 16.9932 119.7457 54.7582 117.4447 57.0592"></polygon>
                <polygon id="Fill-11" fill="#B92826" points="83.0195 47.9533 80.7185 45.6523 118.4835 7.8873 120.7845 10.1883"></polygon>
                <polygon id="Fill-12" fill="#B92826" points="91.5607 57.4435 89.2597 55.1425 127.0247 17.3775 129.3257 19.6785"></polygon>
                <polygon id="Fill-13" fill="#B92826" points="33.089 137.6 36.342 137.6 36.342 70.643 33.089 70.643"></polygon>
                <polygon id="Fill-14" fill="#B92826" points="1.237 104.935 68.195 104.935 68.195 101.681 1.237 101.681"></polygon>
                <polygon id="Fill-15" fill="#B92826" points="19.3144 81.3951 21.6154 79.0941 59.3804 116.8591 57.0794 119.1601"></polygon>
                <polygon id="Fill-16" fill="#B92826" points="9.8242 89.9363 12.1252 87.6353 49.8902 125.4003 47.5892 127.7013"></polygon>
                <polygon id="Fill-17" fill="#B92826" points="13.164 118.5954 10.863 116.2944 48.628 78.5294 50.929 80.8304"></polygon>
                <polygon id="Fill-18" fill="#B92826" points="21.7052 128.0856 19.4042 125.7846 57.1692 88.0196 59.4702 90.3206"></polygon>
                <polygon id="Fill-19" fill="#BA8F5D" points="104.181 136.413 107.435 136.413 107.435 69.455 104.181 69.455"></polygon>
                <polygon id="Fill-20" fill="#BA8F5D" points="72.329 103.748 139.287 103.748 139.287 100.494 72.329 100.494"></polygon>
                <polygon id="Fill-21" fill="#BA8F5D" points="90.4066 80.2086 92.7076 77.9076 130.4726 115.6726 128.1716 117.9736"></polygon>
                <polygon id="Fill-22" fill="#BA8F5D" points="80.9164 88.7498 83.2174 86.4488 120.9824 124.2138 118.6814 126.5148"></polygon>
                <polygon id="Fill-23" fill="#BA8F5D" points="84.2562 117.4089 81.9552 115.1079 119.7202 77.3429 122.0212 79.6439"></polygon>
                <polygon id="Fill-24" fill="#BA8F5D" points="92.7974 126.8991 90.4964 124.5981 128.2614 86.8331 130.5624 89.1341"></polygon>
            </g>
        </g>
    </g>
</svg>