<?xml version="1.0" encoding="UTF-8"?>
<svg id="Layer_2" data-name="Layer 2" xmlns="http://www.w3.org/2000/svg" viewBox="0 0 154.28 154.28">
  <defs>
    <style>
      .cls-1 {
        fill: #fef9f2;
      }
    </style>
  </defs>
  <g id="Layer_1-2" data-name="Layer 1">
    <g>
      <g>
        <rect class="cls-1" x="74.97" y="28.07" width="4.34" height="97.96"/>
        <circle class="cls-1" cx="77.14" cy="15.62" r="15.62" transform="translate(-1.53 18.14) rotate(-13.28)"/>
        <circle class="cls-1" cx="77.14" cy="138.66" r="15.62"/>
      </g>
      <g>
        <rect class="cls-1" x="28.25" y="74.97" width="97.96" height="4.34"/>
        <circle class="cls-1" cx="138.66" cy="77.14" r="15.62" transform="translate(-10.57 23.21) rotate(-9.22)"/>
        <circle class="cls-1" cx="15.62" cy="77.14" r="15.62"/>
      </g>
      <g>
        <rect class="cls-1" x="28.22" y="74.91" width="97.96" height="4.34" transform="translate(-31.89 77.17) rotate(-45)"/>
        <path class="cls-1" d="M131.69,44.68c6.1-6.1,6.1-15.99,0-22.09-6.1-6.1-15.99-6.1-22.09,0-6.1,6.1-6.1,15.99,0,22.09,6.1,6.1,15.99,6.1,22.09,0Z"/>
        <path class="cls-1" d="M44.68,131.69c6.1-6.1,6.1-15.99,0-22.09-6.1-6.1-15.99-6.1-22.09,0-6.1,6.1-6.1,15.99,0,22.09,6.1,6.1,15.99,6.1,22.09,0Z"/>
      </g>
      <g>
        <rect class="cls-1" x="75.03" y="28.22" width="4.34" height="97.96" transform="translate(-31.98 77.2) rotate(-45)"/>
        <path class="cls-1" d="M109.6,131.69c6.1,6.1,15.99,6.1,22.09,0,6.1-6.1,6.1-15.99,0-22.09-6.1-6.1-15.99-6.1-22.09,0-6.1,6.1-6.1,15.99,0,22.09Z"/>
        <path class="cls-1" d="M22.59,44.68c6.1,6.1,15.99,6.1,22.09,0,6.1-6.1,6.1-15.99,0-22.09-6.1-6.1-15.99-6.1-22.09,0-6.1,6.1-6.1,15.99,0,22.09Z"/>
      </g>
    </g>
  </g>
</svg>