<?xml version="1.0" encoding="UTF-8"?>
<svg width="110px" height="163px" viewBox="0 0 110 163" version="1.1" xmlns="http://www.w3.org/2000/svg" xmlns:xlink="http://www.w3.org/1999/xlink">
    <title>Group 19</title>
    <defs>
        <polygon id="path-1" points="0 0 40.5263158 0 40.5263158 43 0 43"></polygon>
        <polygon id="path-3" points="0 0 40.5263158 0 40.5263158 43 0 43"></polygon>
    </defs>
    <g id="Events" stroke="none" stroke-width="1" fill="none" fill-rule="evenodd">
        <g id="EV-Dash---Desktop" transform="translate(-1102, -1596)">
            <g id="Group" transform="translate(300, 1086)">
                <g id="Group-19" transform="translate(802, 510)">
                    <path d="M92.6315789,98 C92.6315789,76.4608131 75.783426,59 55,59 C34.216574,59 17.3684211,76.4608131 17.3684211,98 C17.3684211,119.539187 34.216574,137 55,137 C75.783426,137 92.6315789,119.539187 92.6315789,98" id="Fill-1" fill="#ECD8C7"></path>
                    <g id="Group-5" transform="translate(0, 94)">
                        <mask id="mask-2" fill="white">
                            <use xlink:href="#path-1"></use>
                        </mask>
                        <g id="Clip-4"></g>
                        <path d="M40.5263158,21.5 C40.5263158,9.62539713 31.4539806,0 20.2633878,0 C9.0720286,0 -0.000306549591,9.62539713 -0.000306549591,21.5 C-0.000306549591,33.3746029 9.0720286,43 20.2633878,43 C31.4539806,43 40.5263158,33.3746029 40.5263158,21.5" id="Fill-3" fill="#FCF8F1" mask="url(#mask-2)"></path>
                    </g>
                    <g id="Group-8" transform="translate(69.4737, 94)">
                        <mask id="mask-4" fill="white">
                            <use xlink:href="#path-3"></use>
                        </mask>
                        <g id="Clip-7"></g>
                        <path d="M40.5263924,21.5 C40.5263924,9.62539713 31.4541087,0 20.2635794,0 C9.07228368,0 0,9.62539713 0,21.5 C0,33.3746029 9.07228368,43 20.2635794,43 C31.4541087,43 40.5263924,33.3746029 40.5263924,21.5" id="Fill-6" fill="#FCF8F1" mask="url(#mask-4)"></path>
                    </g>
                    <path d="M88.7719298,141.5 C88.7719298,129.625397 79.6996633,120 68.5091551,120 C57.3178806,120 48.245614,129.625397 48.245614,141.5 C48.245614,153.374603 57.3178806,163 68.5091551,163 C79.6996633,163 88.7719298,153.374603 88.7719298,141.5" id="Fill-9" fill="#FCF8F1"></path>
                    <path d="M61.754386,141.5 C61.754386,129.625397 52.6821194,120 41.4916113,120 C30.3003367,120 21.2280702,129.625397 21.2280702,141.5 C21.2280702,153.374603 30.3003367,163 41.4916113,163 C52.6821194,163 61.754386,153.374603 61.754386,141.5" id="Fill-11" fill="#FCF8F1"></path>
                    <polygon id="Fill-13" fill="#C1282D" points="55 16 15.4385965 86 94.5614035 86"></polygon>
                    <path d="M99.7036399,83 L10.2963601,83 C7.80693798,83 5.78947368,85.0740888 5.78947368,87.6315999 L5.78947368,94.3684001 C5.78947368,96.9267089 7.80693798,99 10.2963601,99 L99.7036399,99 C102.193062,99 104.210526,96.9267089 104.210526,94.3684001 L104.210526,87.6315999 C104.210526,85.0740888 102.193062,83 99.7036399,83" id="Fill-15" fill="#FCF8F1"></path>
                    <path d="M67.5438596,13 C67.5438596,5.82011036 61.9279637,0 55,0 C48.0720363,0 42.4561404,5.82011036 42.4561404,13 C42.4561404,20.1798896 48.0720363,26 55,26 C61.9279637,26 67.5438596,20.1798896 67.5438596,13" id="Fill-17" fill="#FCF8F1"></path>
                </g>
            </g>
        </g>
    </g>
</svg>