<?xml version="1.0" encoding="UTF-8"?>
<svg width="69px" height="143px" viewBox="0 0 69 143" version="1.1" xmlns="http://www.w3.org/2000/svg" xmlns:xlink="http://www.w3.org/1999/xlink">
    <title>Group 22</title>
    <defs>
        <polygon id="path-1" points="0 0 69 0 69 143 0 143"></polygon>
        <polygon id="path-3" points="0 0 41.7887324 0 41.7887324 44 0 44"></polygon>
        <polygon id="path-5" points="0 0 23.3239437 0 23.3239437 39 0 39"></polygon>
        <polygon id="path-7" points="0 0 23.3239437 0 23.3239437 39 0 39"></polygon>
        <polygon id="path-9" points="0 0 22.3521127 0 22.3521127 31 0 31"></polygon>
    </defs>
    <g id="Events" stroke="none" stroke-width="1" fill="none" fill-rule="evenodd">
        <g id="EV-Dash---Desktop" transform="translate(-318, -1134)">
            <g id="Group" transform="translate(300, 1086)">
                <g id="Group-22" transform="translate(18, 48)">
                    <g id="Group-3">
                        <mask id="mask-2" fill="white">
                            <use xlink:href="#path-1"></use>
                        </mask>
                        <g id="Clip-2"></g>
                        <path d="M57.5307629,143 C51.1963716,143 46.0613875,137.746973 46.0613875,131.266968 L46.0613875,35.2931536 C46.0613875,28.7721307 40.8752472,23.4660646 34.5000691,23.4660646 C28.124891,23.4660646 22.9380594,28.7721307 22.9380594,35.2931536 L22.9380594,40.4047417 C22.9380594,46.8840402 17.8037667,52.1370668 11.4693754,52.1370668 C5.13498404,52.1370668 0,46.8840402 0,40.4047417 L0,35.2931536 C0,15.8326278 15.4768474,0 34.5000691,0 C53.5232908,0 69.0001383,15.8326278 69.0001383,35.2931536 L69.0001383,131.266968 C69.0001383,137.746973 63.8651542,143 57.5307629,143" id="Fill-1" fill="#FEFEFE" mask="url(#mask-2)"></path>
                    </g>
                    <g id="Group-6">
                        <mask id="mask-4" fill="white">
                            <use xlink:href="#path-3"></use>
                        </mask>
                        <g id="Clip-5"></g>
                        <path d="M34.13102,0 C31.7010966,0 29.3299892,0.268040569 27.0423186,0.774181005 L0.742655169,28.1877451 C0.257080834,30.5723081 -6.83907513e-05,33.0438417 -6.83907513e-05,35.5766825 L-6.83907513e-05,40.7286219 C-6.83907513e-05,41.8642299 0.15654643,42.9606299 0.443103678,44 L41.7887324,0.903211173 C39.3259814,0.312951622 36.76338,0 34.13102,0" id="Fill-4" fill="#C1282D" mask="url(#mask-4)"></path>
                    </g>
                    <path d="M52.3544203,5 L34.9859155,23.1216384 C38.8892405,23.3613689 42.2670918,25.6657604 44.1331014,29 L60.2535211,12.1805662 C57.9952756,9.3846563 55.3305187,6.9575625 52.3544203,5" id="Fill-7" fill="#C1282D"></path>
                    <path d="M23.3239437,40.3531064 L23.3239437,36 L7.77464789,51.3836434 C8.96032249,51.7809758 10.2297252,52 11.5516353,52 C18.0533327,52 23.3239437,46.7855388 23.3239437,40.3531064" id="Fill-9" fill="#C1282D"></path>
                    <path d="M69,34.7410177 C68.9669583,30.2430332 68.0797528,25.9455512 66.4902348,22 L45.6760563,42.7562073 L45.6760563,58 L69,34.7410177 Z" id="Fill-11" fill="#C1282D"></path>
                    <g id="Group-15" transform="translate(45.6761, 50)">
                        <mask id="mask-6" fill="white">
                            <use xlink:href="#path-5"></use>
                        </mask>
                        <g id="Clip-14"></g>
                        <polygon id="Fill-13" fill="#C1282D" mask="url(#mask-6)" points="23.324014 15.4392455 23.324014 0 0 23.5607545 0 39"></polygon>
                    </g>
                    <g id="Group-18" transform="translate(45.6761, 81)">
                        <mask id="mask-8" fill="white">
                            <use xlink:href="#path-7"></use>
                        </mask>
                        <g id="Clip-17"></g>
                        <polygon id="Fill-16" fill="#C1282D" mask="url(#mask-8)" points="23.324014 15.4392455 23.324014 0 0 23.5607545 0 39"></polygon>
                    </g>
                    <g id="Group-21" transform="translate(46.6479, 112)">
                        <mask id="mask-10" fill="white">
                            <use xlink:href="#path-9"></use>
                        </mask>
                        <g id="Clip-20"></g>
                        <path d="M22.3521817,0 L0,23.2383453 C1.13275153,26.93987 3.95980133,29.8560489 7.53397043,31 L22.3521817,15.5950304 L22.3521817,0 Z" id="Fill-19" fill="#C1282D" mask="url(#mask-10)"></path>
                    </g>
                </g>
            </g>
        </g>
    </g>
</svg>