<?xml version="1.0" encoding="UTF-8"?>
<svg id="Layer_2" data-name="Layer 2" xmlns="http://www.w3.org/2000/svg" viewBox="0 0 139.29 137.6">
  <defs>
    <style>
      .cls-1 {
        fill: #ede6dd;
      }

      .cls-2 {
        fill: #ba2826;
      }
    </style>
  </defs>
  <g id="Layer_1-2" data-name="Layer 1">
    <g>
      <rect class="cls-1" x="31.85" y="1.19" width="3.25" height="66.96"/>
      <rect class="cls-1" x="31.85" y=".37" width="3.25" height="66.96" transform="translate(67.33 .37) rotate(90)"/>
      <rect class="cls-1" x="36.48" y="2.97" width="3.25" height="53.41" transform="translate(86.04 23.7) rotate(135)"/>
      <rect class="cls-1" x="26.99" y="11.51" width="3.25" height="53.41" transform="translate(75.88 45) rotate(135)"/>
      <rect class="cls-1" x="28.03" y="2.4" width="3.25" height="53.41" transform="translate(29.27 -12.45) rotate(45)"/>
      <rect class="cls-1" x="36.57" y="11.89" width="3.25" height="53.41" transform="translate(38.48 -15.71) rotate(45)"/>
    </g>
    <g>
      <rect class="cls-2" x="102.94" width="3.25" height="66.96"/>
      <rect class="cls-2" x="102.94" y="-.81" width="3.25" height="66.96" transform="translate(137.24 -71.91) rotate(90)"/>
      <rect class="cls-2" x="107.58" y="1.78" width="3.25" height="53.41" transform="translate(206.56 -28.59) rotate(135)"/>
      <rect class="cls-2" x="98.09" y="10.32" width="3.25" height="53.41" transform="translate(196.4 -7.3) rotate(135)"/>
      <rect class="cls-2" x="99.12" y="1.22" width="3.25" height="53.41" transform="translate(49.25 -63.06) rotate(45)"/>
      <rect class="cls-2" x="107.67" y="10.71" width="3.25" height="53.41" transform="translate(58.46 -66.32) rotate(45)"/>
    </g>
    <g>
      <rect class="cls-2" x="33.09" y="70.64" width="3.25" height="66.96"/>
      <rect class="cls-2" x="33.09" y="69.83" width="3.25" height="66.96" transform="translate(138.02 68.59) rotate(90)"/>
      <rect class="cls-2" x="37.72" y="72.42" width="3.25" height="53.41" transform="translate(137.26 141.4) rotate(135)"/>
      <rect class="cls-2" x="28.23" y="80.96" width="3.25" height="53.41" transform="translate(127.1 162.69) rotate(135)"/>
      <rect class="cls-2" x="29.27" y="71.86" width="3.25" height="53.41" transform="translate(78.74 7.02) rotate(45)"/>
      <rect class="cls-2" x="37.81" y="81.35" width="3.25" height="53.41" transform="translate(87.96 3.76) rotate(45)"/>
    </g>
    <g>
      <rect class="cls-1" x="104.18" y="69.46" width="3.25" height="66.96"/>
      <rect class="cls-1" x="104.18" y="68.64" width="3.25" height="66.96" transform="translate(207.93 -3.69) rotate(90)"/>
      <rect class="cls-1" x="108.81" y="71.24" width="3.25" height="53.41" transform="translate(257.79 89.1) rotate(135)"/>
      <rect class="cls-1" x="99.32" y="79.78" width="3.25" height="53.41" transform="translate(247.62 110.39) rotate(135)"/>
      <rect class="cls-1" x="100.36" y="70.67" width="3.25" height="53.41" transform="translate(98.73 -43.6) rotate(45)"/>
      <rect class="cls-1" x="108.9" y="80.16" width="3.25" height="53.41" transform="translate(107.94 -46.86) rotate(45)"/>
    </g>
  </g>
</svg>